<?xml version="1.0" standalone="no"?><!DOCTYPE svg PUBLIC "-//W3C//DTD SVG 1.1//EN" "http://www.w3.org/Graphics/SVG/1.1/DTD/svg11.dtd"><svg t="1568617479842" class="icon" viewBox="0 0 1024 1024" version="1.1" xmlns="http://www.w3.org/2000/svg" p-id="2043" xmlns:xlink="http://www.w3.org/1999/xlink" width="200" height="200"><defs><style type="text/css"></style></defs><path d="M512 357.5296a30.72 30.72 0 0 1-30.72-30.72V174.9504a30.72 30.72 0 0 1 61.44 0v151.8592a30.72 30.72 0 0 1-30.72 30.72zM311.5008 892.0576A30.72 30.72 0 0 1 289.792 839.68l107.52-107.52a30.72 30.72 0 0 1 43.4176 43.4688l-107.52 107.52a30.72 30.72 0 0 1-21.7088 8.9088zM712.4992 892.0576a30.72 30.72 0 0 1-21.76-8.96l-107.52-107.52a30.72 30.72 0 0 1 43.4176-43.4688l107.52 107.52a30.72 30.72 0 0 1-21.7088 52.4288z" fill="#ffffff" p-id="2044"></path><path d="M856.6272 226.9696H167.3728a61.44 61.44 0 0 0-61.44 61.44V706.56a61.44 61.44 0 0 0 61.44 61.44h689.2544a61.44 61.44 0 0 0 61.44-61.44V288.4096a61.44 61.44 0 0 0-61.44-61.44z m-45.5168 153.088l-190.8224 177.5616a93.6448 93.6448 0 0 1-142.4384-17.6128l-37.12-57.2928a32.256 32.256 0 0 0-49.408-5.6832l-136.192 131.328a30.72 30.72 0 0 1-42.6496-44.2368l136.192-131.2768a93.6448 93.6448 0 0 1 143.616 16.4864l37.12 57.2416a32.2048 32.2048 0 0 0 48.9984 6.0928l190.8736-177.6128a30.72 30.72 0 0 1 41.8304 45.0048z" fill="#ffffff" p-id="2045"></path></svg>