<?xml version="1.0" standalone="no"?><!DOCTYPE svg PUBLIC "-//W3C//DTD SVG 1.1//EN" "http://www.w3.org/Graphics/SVG/1.1/DTD/svg11.dtd"><svg t="1568626082591" class="icon" viewBox="0 0 1024 1024" version="1.1" xmlns="http://www.w3.org/2000/svg" p-id="5875" xmlns:xlink="http://www.w3.org/1999/xlink" width="200" height="200"><defs><style type="text/css"></style></defs><path d="M938.496 469.504l-303.104-302.08a36.864 36.864 0 0 0-64 26.112V358.4H358.4a36.352 36.352 0 0 0-38.912 38.912v201.728a51.2 51.2 0 0 0 0 9.216 36.864 36.864 0 0 0 38.912 29.696h214.528v161.28a36.352 36.352 0 0 0 23.552 36.352 36.352 36.352 0 0 0 40.448-9.728l303.104-302.08a36.352 36.352 0 0 0 0-54.784z" fill="" p-id="5876"></path><path d="M440.32 812.544H228.864a88.064 88.064 0 0 1-88.064-88.064V269.824a88.064 88.064 0 0 1 88.064-87.552H440.32a25.6 25.6 0 0 0 0-51.2H228.864a139.264 139.264 0 0 0-139.264 138.752v454.144a139.264 139.264 0 0 0 139.264 139.264H440.32a25.6 25.6 0 1 0 0-51.2z" fill="" p-id="5877"></path></svg>