<?xml version="1.0" standalone="no"?><!DOCTYPE svg PUBLIC "-//W3C//DTD SVG 1.1//EN" "http://www.w3.org/Graphics/SVG/1.1/DTD/svg11.dtd"><svg t="1575278791847" class="icon" viewBox="0 0 1281 1024" version="1.1" xmlns="http://www.w3.org/2000/svg" p-id="7504" xmlns:xlink="http://www.w3.org/1999/xlink" width="250.1953125" height="200"><defs><style type="text/css"></style></defs><path d="M148.388024 638.926946c42.922156-53.959281 120.182036-96.881437 174.141317-96.881437h821.652695V334.792814c0-80.938922-67.449102-147.161677-147.161677-147.161676H515.065868V147.161677c0-80.938922-66.222754-147.161677-147.161676-147.161677H147.161677C66.222754 0 0 66.222754 0 147.161677v665.906586c0 3.679042 0 8.584431 1.226347 12.263474l147.161677-186.404791z" p-id="7505" fill="#e6e6e6"></path><path d="M1001.925749 1024h-944.287426c-45.37485 0-53.959281-44.148503-17.168862-96.881437l150.840719-223.19521c36.790419-53.959281 103.013174-96.881437 148.388024-96.881437h901.365269c45.37485 0 53.959281 44.148503 17.168862 96.881437L1073.053892 977.398802c-18.39521 25.753293-49.053892 46.601198-71.128143 46.601198z" p-id="7506" fill="#e6e6e6"></path></svg>