<?xml version="1.0" standalone="no"?><!DOCTYPE svg PUBLIC "-//W3C//DTD SVG 1.1//EN" "http://www.w3.org/Graphics/SVG/1.1/DTD/svg11.dtd"><svg t="1575249128232" class="icon" viewBox="0 0 1024 1024" version="1.1" xmlns="http://www.w3.org/2000/svg" p-id="5224" xmlns:xlink="http://www.w3.org/1999/xlink" width="200" height="200"><defs><style type="text/css"></style></defs><path d="M736.552062 73.141969L950.858031 285.985099 696.323979 612.9297l-38.033824 51.199378 46.079441 45.348021 8.777036 7.314197-102.398757 101.667337-407.400767-404.475089 100.935917-101.667336 8.777037 8.777036 45.34802 44.616601 51.199379-39.496663L736.552062 73.141969m0-73.141969a73.141969 73.141969 0 0 0-43.885181 15.359813L365.722279 269.162446l-8.777036-8.777036a73.141969 73.141969 0 0 0-101.667337 0L152.14773 362.052747a73.141969 73.141969 0 0 0 0 101.667336l407.400767 406.669348a73.141969 73.141969 0 0 0 98.741658 0l101.667337-101.667337a73.141969 73.141969 0 0 0 0-101.667337L754.106135 658.277721l254.534052-326.944601a73.141969 73.141969 0 0 0-5.851358-95.08456L787.020021 21.211171a73.141969 73.141969 0 0 0-51.199379-21.211171zM17.566507 1015.21053l-8.777036-8.777037a29.988207 29.988207 0 0 1 0-42.422342l263.311088-261.848249a29.988207 29.988207 0 0 1 42.422342 0l8.777036 8.777037a29.988207 29.988207 0 0 1 0 42.422342l-263.311088 261.848249a29.988207 29.988207 0 0 1-42.422342 0z" fill="#ffffff" p-id="5225"></path></svg>