<?xml version="1.0" standalone="no"?><!DOCTYPE svg PUBLIC "-//W3C//DTD SVG 1.1//EN" "http://www.w3.org/Graphics/SVG/1.1/DTD/svg11.dtd"><svg t="1575249367510" class="icon" viewBox="0 0 1024 1024" version="1.1" xmlns="http://www.w3.org/2000/svg" p-id="6163" xmlns:xlink="http://www.w3.org/1999/xlink" width="200" height="200"><defs><style type="text/css"></style></defs><path d="M423.936 768c92.16 0 175.104-35.84 236.544-94.208 2.048-2.048 3.072-5.12 6.144-7.168 16.384-16.384 44.032-16.384 60.416 0l284.672 284.672c16.384 16.384 16.384 44.032 0 60.416-16.384 16.384-44.032 16.384-60.416 0L696.32 757.76c-73.728 60.416-166.912 96.256-269.312 96.256-235.52 0-427.008-191.488-427.008-427.008S191.488 0 427.008 0s427.008 191.488 427.008 427.008c0 46.08-8.192 91.136-21.504 133.12-3.072 20.48-20.48 35.84-41.984 35.84-23.552 0-43.008-19.456-43.008-43.008v-4.096c0-4.096 1.024-8.192 2.048-12.288 12.288-34.816 19.456-72.704 19.456-112.64 0-189.44-153.6-344.064-344.064-344.064S80.896 233.472 80.896 423.936C79.872 614.4 233.472 768 423.936 768z" fill="#ffffff" p-id="6164"></path></svg>