<?xml version="1.0" standalone="no"?><!DOCTYPE svg PUBLIC "-//W3C//DTD SVG 1.1//EN" "http://www.w3.org/Graphics/SVG/1.1/DTD/svg11.dtd"><svg t="1576122698383" class="icon" viewBox="0 0 1024 1024" version="1.1" xmlns="http://www.w3.org/2000/svg" p-id="2440" xmlns:xlink="http://www.w3.org/1999/xlink" width="200" height="200"><defs><style type="text/css"></style></defs><path d="M813.248 557.248l-192 192a64 64 0 0 1-90.496-90.496L677.504 512 530.752 365.248a64 64 0 0 1 90.496-90.496l192 192a64 64 0 0 1 0 90.496z m-320 0l-192 192a64 64 0 0 1-90.496-90.496L357.504 512 210.752 365.248a64 64 0 0 1 90.496-90.496l192 192a64 64 0 0 1 0 90.496z" p-id="2441"></path></svg>