<?xml version="1.0" standalone="no"?><!DOCTYPE svg PUBLIC "-//W3C//DTD SVG 1.1//EN" "http://www.w3.org/Graphics/SVG/1.1/DTD/svg11.dtd"><svg t="1568623852083" class="icon" viewBox="0 0 1024 1024" version="1.1" xmlns="http://www.w3.org/2000/svg" p-id="4913" xmlns:xlink="http://www.w3.org/1999/xlink" width="200" height="200"><defs><style type="text/css"></style></defs><path d="M25.060425 633.498694a24.931068 24.931068 0 0 0 24.931068-24.931068V304.533248c0-63.574224 51.731967-109.6967 122.910167-109.6967h780.467092L847.785678 299.173069a24.931068 24.931068 0 0 0-7.23001 17.202437 24.183136 24.183136 0 0 0 7.23001 17.451748 24.183136 24.183136 0 0 0 34.404874 0l121.289647-120.292405a60.831807 60.831807 0 0 0 0-86.261496L882.315207 7.105604A23.80917 23.80917 0 0 0 865.237426 0.000249 24.931068 24.931068 0 0 0 847.785678 41.635133l105.333763 104.585832H171.904417a181.248866 181.248866 0 0 0-120.167749 42.756782A151.45624 151.45624 0 0 0 0.129357 304.533248v304.532999a24.931068 24.931068 0 0 0 24.931068 24.432447zM998.493986 389.797502a24.931068 24.931068 0 0 0-24.931069 24.931068v279.726586c0 71.302855-57.466112 134.004492-122.910166 134.004492H68.315828l105.333764-104.585831a24.931068 24.931068 0 0 0 7.23001-17.202437 24.931068 24.931068 0 0 0-41.510229-17.327093L18.079726 810.259968a60.831807 60.831807 0 0 0 0 86.261496l121.289647 120.292405a24.183136 24.183136 0 0 0 34.404874 0 24.183136 24.183136 0 0 0 7.105355-17.202437 24.931068 24.931068 0 0 0-7.23001-17.202437l-105.333764-105.333764h782.835544a164.420395 164.420395 0 0 0 122.162235-56.842835 190.598017 190.598017 0 0 0 49.862136-125.77724V414.229949a24.931068 24.931068 0 0 0-24.681757-24.432447z" fill="#2c2c2c" p-id="4914"></path></svg>